<?xml version="1.0" encoding="UTF-8" standalone="no"?>
<svg width="297mm" height="210mm" viewBox="0 0 297 210" version="1.1" id="svg5" xmlns="http://www.w3.org/2000/svg" xmlns:svg="http://www.w3.org/2000/svg">
<g id="checkers">
<rect width="22" height="22" x="5.5" y="6"></rect>
<rect width="22" height="22" x="49.5" y="6"></rect>
<rect width="22" height="22" x="93.5" y="6"></rect>
<rect width="22" height="22" x="137.5" y="6"></rect>
<rect width="22" height="22" x="181.5" y="6"></rect>
<rect width="22" height="22" x="225.5" y="6"></rect>
<rect width="22" height="22" x="269.5" y="6"></rect>
<rect width="22" height="22" x="27.5" y="28"></rect>
<rect width="22" height="22" x="71.5" y="28"></rect>
<rect width="22" height="22" x="115.5" y="28"></rect>
<rect width="22" height="22" x="159.5" y="28"></rect>
<rect width="22" height="22" x="203.5" y="28"></rect>
<rect width="22" height="22" x="247.5" y="28"></rect>
<rect width="22" height="22" x="5.5" y="50"></rect>
<rect width="22" height="22" x="49.5" y="50"></rect>
<rect width="22" height="22" x="93.5" y="50"></rect>
<rect width="22" height="22" x="137.5" y="50"></rect>
<rect width="22" height="22" x="181.5" y="50"></rect>
<rect width="22" height="22" x="225.5" y="50"></rect>
<rect width="22" height="22" x="269.5" y="50"></rect>
<rect width="22" height="22" x="27.5" y="72"></rect>
<rect width="22" height="22" x="71.5" y="72"></rect>
<rect width="22" height="22" x="115.5" y="72"></rect>
<rect width="22" height="22" x="159.5" y="72"></rect>
<rect width="22" height="22" x="203.5" y="72"></rect>
<rect width="22" height="22" x="247.5" y="72"></rect>
<rect width="22" height="22" x="5.5" y="94"></rect>
<rect width="22" height="22" x="49.5" y="94"></rect>
<rect width="22" height="22" x="93.5" y="94"></rect>
<rect width="22" height="22" x="137.5" y="94"></rect>
<rect width="22" height="22" x="181.5" y="94"></rect>
<rect width="22" height="22" x="225.5" y="94"></rect>
<rect width="22" height="22" x="269.5" y="94"></rect>
<rect width="22" height="22" x="27.5" y="116"></rect>
<rect width="22" height="22" x="71.5" y="116"></rect>
<rect width="22" height="22" x="115.5" y="116"></rect>
<rect width="22" height="22" x="159.5" y="116"></rect>
<rect width="22" height="22" x="203.5" y="116"></rect>
<rect width="22" height="22" x="247.5" y="116"></rect>
<rect width="22" height="22" x="5.5" y="138"></rect>
<rect width="22" height="22" x="49.5" y="138"></rect>
<rect width="22" height="22" x="93.5" y="138"></rect>
<rect width="22" height="22" x="137.5" y="138"></rect>
<rect width="22" height="22" x="181.5" y="138"></rect>
<rect width="22" height="22" x="225.5" y="138"></rect>
<rect width="22" height="22" x="269.5" y="138"></rect>
<rect width="22" height="22" x="27.5" y="160"></rect>
<rect width="22" height="22" x="71.5" y="160"></rect>
<rect width="22" height="22" x="115.5" y="160"></rect>
<rect width="22" height="22" x="159.5" y="160"></rect>
<rect width="22" height="22" x="203.5" y="160"></rect>
<rect width="22" height="22" x="247.5" y="160"></rect>
<rect width="22" height="22" x="5.5" y="182"></rect>
<rect width="22" height="22" x="49.5" y="182"></rect>
<rect width="22" height="22" x="93.5" y="182"></rect>
<rect width="22" height="22" x="137.5" y="182"></rect>
<rect width="22" height="22" x="181.5" y="182"></rect>
<rect width="22" height="22" x="225.5" y="182"></rect>
<rect width="22" height="22" x="269.5" y="182"></rect>

</g>
</svg>
